<svg width="660" height="71" viewBox="0 0 660 71" fill="none" xmlns="http://www.w3.org/2000/svg">
<path d="M48 68.736V1.53599H60.096V68.736H48ZM-2.00272e-05 68.736V1.53599H12.096V68.736H-2.00272e-05ZM5.37598 39.456V28.224H55.584V39.456H5.37598ZM104.338 70.272C99.3457 70.272 94.6737 69.376 90.3217 67.584C86.0337 65.792 82.2577 63.296 78.9937 60.096C75.7937 56.896 73.2657 53.184 71.4097 48.96C69.6177 44.672 68.7217 40.064 68.7217 35.136C68.7217 30.208 69.6177 25.632 71.4097 21.408C73.2657 17.12 75.7937 13.376 78.9937 10.176C82.2577 6.97599 86.0337 4.47999 90.3217 2.68799C94.6737 0.89599 99.3457 -9.53674e-06 104.338 -9.53674e-06C109.33 -9.53674e-06 113.97 0.89599 118.258 2.68799C122.61 4.47999 126.386 6.97599 129.586 10.176C132.85 13.376 135.378 17.12 137.17 21.408C139.026 25.632 139.954 30.208 139.954 35.136C139.954 40.064 139.026 44.672 137.17 48.96C135.378 53.184 132.85 56.896 129.586 60.096C126.386 63.296 122.61 65.792 118.258 67.584C113.97 69.376 109.33 70.272 104.338 70.272ZM104.338 58.752C107.73 58.752 110.834 58.176 113.65 57.024C116.53 55.872 118.994 54.24 121.042 52.128C123.154 50.016 124.786 47.52 125.938 44.64C127.09 41.76 127.666 38.56 127.666 35.04C127.666 31.584 127.09 28.416 125.938 25.536C124.786 22.656 123.154 20.192 121.042 18.144C118.994 16.032 116.53 14.4 113.65 13.248C110.834 12.096 107.73 11.52 104.338 11.52C100.946 11.52 97.8097 12.096 94.9297 13.248C92.1137 14.4 89.6497 16.032 87.5377 18.144C85.4897 20.192 83.8897 22.688 82.7377 25.632C81.5857 28.512 81.0097 31.68 81.0097 35.136C81.0097 38.592 81.5857 41.76 82.7377 44.64C83.8897 47.52 85.4897 50.016 87.5377 52.128C89.6497 54.24 92.1137 55.872 94.9297 57.024C97.8097 58.176 100.946 58.752 104.338 58.752ZM146.632 68.736V1.53599H158.728V68.736H152.488V57.312H176.584C179.592 57.312 182.408 56.768 185.032 55.68C187.656 54.528 189.96 52.96 191.944 50.976C193.928 48.928 195.464 46.56 196.552 43.872C197.64 41.184 198.184 38.272 198.184 35.136C198.184 32 197.608 29.088 196.456 26.4C195.368 23.712 193.832 21.376 191.848 19.392C189.864 17.344 187.56 15.776 184.936 14.688C182.312 13.536 179.464 12.96 176.392 12.96H152.488V1.53599H175.816C180.744 1.53599 185.288 2.39999 189.448 4.12799C193.672 5.79199 197.352 8.15999 200.488 11.232C203.688 14.304 206.152 17.888 207.88 21.984C209.608 26.016 210.472 30.4 210.472 35.136C210.472 39.808 209.608 44.192 207.88 48.288C206.152 52.384 203.72 55.968 200.584 59.04C197.448 62.048 193.8 64.416 189.64 66.144C185.48 67.872 180.968 68.736 176.104 68.736H146.632ZM251.694 70.272C246.702 70.272 242.03 69.376 237.678 67.584C233.39 65.792 229.614 63.296 226.35 60.096C223.15 56.896 220.622 53.184 218.766 48.96C216.974 44.672 216.078 40.064 216.078 35.136C216.078 30.208 216.974 25.632 218.766 21.408C220.622 17.12 223.15 13.376 226.35 10.176C229.614 6.97599 233.39 4.47999 237.678 2.68799C242.03 0.89599 246.702 -9.53674e-06 251.694 -9.53674e-06C256.686 -9.53674e-06 261.326 0.89599 265.614 2.68799C269.966 4.47999 273.742 6.97599 276.942 10.176C280.206 13.376 282.734 17.12 284.526 21.408C286.382 25.632 287.31 30.208 287.31 35.136C287.31 40.064 286.382 44.672 284.526 48.96C282.734 53.184 280.206 56.896 276.942 60.096C273.742 63.296 269.966 65.792 265.614 67.584C261.326 69.376 256.686 70.272 251.694 70.272ZM251.694 58.752C255.086 58.752 258.19 58.176 261.006 57.024C263.886 55.872 266.35 54.24 268.398 52.128C270.51 50.016 272.142 47.52 273.294 44.64C274.446 41.76 275.022 38.56 275.022 35.04C275.022 31.584 274.446 28.416 273.294 25.536C272.142 22.656 270.51 20.192 268.398 18.144C266.35 16.032 263.886 14.4 261.006 13.248C258.19 12.096 255.086 11.52 251.694 11.52C248.302 11.52 245.166 12.096 242.286 13.248C239.47 14.4 237.006 16.032 234.894 18.144C232.846 20.192 231.246 22.688 230.094 25.632C228.942 28.512 228.366 31.68 228.366 35.136C228.366 38.592 228.942 41.76 230.094 44.64C231.246 47.52 232.846 50.016 234.894 52.128C237.006 54.24 239.47 55.872 242.286 57.024C245.166 58.176 248.302 58.752 251.694 58.752ZM351.465 70.272C346.857 70.272 342.665 69.376 338.889 67.584C335.177 65.728 332.233 63.136 330.057 59.808C327.881 56.416 326.793 52.448 326.793 47.904H333.993C333.993 51.232 334.825 54.08 336.489 56.448C338.153 58.752 340.329 60.512 343.017 61.728C345.705 62.944 348.521 63.552 351.465 63.552C354.537 63.552 357.321 62.976 359.817 61.824C362.377 60.608 364.393 58.976 365.865 56.928C367.401 54.88 368.169 52.512 368.169 49.824C368.169 47.008 367.625 44.8 366.537 43.2C365.449 41.536 364.041 40.256 362.313 39.36C360.649 38.464 358.825 37.76 356.841 37.248C354.921 36.736 353.097 36.256 351.369 35.808C349.897 35.36 348.233 34.912 346.377 34.464C344.521 34.016 342.665 33.44 340.809 32.736C338.953 32.032 337.225 31.072 335.625 29.856C334.089 28.64 332.841 27.072 331.881 25.152C330.921 23.232 330.441 20.864 330.441 18.048C330.441 14.464 331.337 11.328 333.129 8.63999C334.985 5.88799 337.449 3.77599 340.521 2.30399C343.657 0.76799 347.017 -9.53674e-06 350.601 -9.53674e-06C354.377 -9.53674e-06 357.865 0.79999 361.065 2.39999C364.329 3.99999 366.921 6.20799 368.841 9.02399C370.825 11.776 371.817 14.88 371.817 18.336H364.617C364.617 16.096 363.977 14.112 362.697 12.384C361.481 10.592 359.849 9.18399 357.801 8.15999C355.753 7.07199 353.513 6.52799 351.081 6.52799C348.713 6.52799 346.473 6.94399 344.361 7.77599C342.313 8.54399 340.681 9.72799 339.465 11.328C338.249 12.864 337.641 14.784 337.641 17.088C337.641 19.52 338.217 21.44 339.369 22.848C340.585 24.256 342.089 25.344 343.881 26.112C345.737 26.88 347.657 27.456 349.641 27.84C351.689 28.224 353.513 28.64 355.113 29.088C356.265 29.408 357.673 29.824 359.337 30.336C361.065 30.784 362.857 31.424 364.713 32.256C366.569 33.024 368.297 34.112 369.897 35.52C371.561 36.928 372.873 38.72 373.833 40.896C374.857 43.008 375.369 45.632 375.369 48.768C375.369 53.056 374.281 56.832 372.105 60.096C369.993 63.296 367.113 65.792 363.465 67.584C359.881 69.376 355.881 70.272 351.465 70.272ZM399.892 68.736V1.53599H406.9V68.736H399.892ZM375.028 7.96799V1.53599H431.668V7.96799H375.028ZM465.318 70.272C461.03 70.272 457.094 69.536 453.51 68.064C449.99 66.592 446.886 64.544 444.198 61.92C441.574 59.232 439.526 56.096 438.054 52.512C436.646 48.928 435.942 44.992 435.942 40.704V1.53599H443.046V41.184C443.046 45.472 444.006 49.344 445.926 52.8C447.846 56.192 450.47 58.88 453.798 60.864C457.19 62.784 461.03 63.744 465.318 63.744C468.518 63.744 471.462 63.2 474.15 62.112C476.902 60.96 479.238 59.392 481.158 57.408C483.142 55.36 484.678 52.96 485.766 50.208C486.918 47.456 487.494 44.448 487.494 41.184V1.53599H494.694V40.704C494.694 44.992 493.958 48.928 492.486 52.512C491.014 56.096 488.966 59.232 486.342 61.92C483.718 64.544 480.614 66.592 477.03 68.064C473.446 69.536 469.542 70.272 465.318 70.272ZM505.227 68.736V1.53599H512.235V68.736H508.491V62.208H532.683C536.395 62.208 539.851 61.536 543.051 60.192C546.315 58.784 549.163 56.864 551.595 54.432C554.027 51.936 555.915 49.056 557.259 45.792C558.603 42.464 559.275 38.912 559.275 35.136C559.275 31.36 558.571 27.84 557.163 24.576C555.819 21.248 553.931 18.368 551.499 15.936C549.067 13.44 546.219 11.488 542.955 10.08C539.691 8.67199 536.171 7.96799 532.395 7.96799H508.491V1.53599H531.819C536.811 1.53599 541.387 2.39999 545.547 4.12799C549.771 5.79199 553.451 8.15999 556.587 11.232C559.723 14.304 562.155 17.888 563.883 21.984C565.611 26.016 566.475 30.4 566.475 35.136C566.475 39.808 565.611 44.192 563.883 48.288C562.155 52.384 559.723 55.968 556.587 59.04C553.515 62.048 549.899 64.416 545.739 66.144C541.579 67.872 537.035 68.736 532.107 68.736H505.227ZM573.481 68.736V1.53599H580.489V68.736H573.481ZM624.367 70.272C619.439 70.272 614.831 69.376 610.543 67.584C606.319 65.792 602.607 63.296 599.407 60.096C596.207 56.896 593.711 53.184 591.919 48.96C590.127 44.672 589.231 40.064 589.231 35.136C589.231 30.208 590.127 25.632 591.919 21.408C593.711 17.12 596.207 13.376 599.407 10.176C602.607 6.97599 606.319 4.47999 610.543 2.68799C614.831 0.89599 619.439 -9.53674e-06 624.367 -9.53674e-06C629.295 -9.53674e-06 633.871 0.89599 638.095 2.68799C642.383 4.47999 646.127 6.97599 649.327 10.176C652.527 13.376 655.023 17.12 656.815 21.408C658.607 25.632 659.503 30.208 659.503 35.136C659.503 40.064 658.607 44.672 656.815 48.96C655.023 53.184 652.527 56.896 649.327 60.096C646.127 63.296 642.383 65.792 638.095 67.584C633.871 69.376 629.295 70.272 624.367 70.272ZM624.367 63.744C628.463 63.744 632.207 63.072 635.599 61.728C639.055 60.32 641.999 58.368 644.431 55.872C646.927 53.312 648.847 50.304 650.191 46.848C651.599 43.328 652.303 39.424 652.303 35.136C652.303 30.848 651.599 26.944 650.191 23.424C648.847 19.904 646.927 16.896 644.431 14.4C641.999 11.84 639.055 9.88799 635.599 8.54399C632.207 7.13599 628.463 6.43199 624.367 6.43199C620.271 6.43199 616.527 7.13599 613.135 8.54399C609.743 9.88799 606.799 11.84 604.303 14.4C601.807 16.896 599.855 19.904 598.447 23.424C597.103 26.944 596.431 30.848 596.431 35.136C596.431 39.424 597.103 43.328 598.447 46.848C599.855 50.304 601.807 53.312 604.303 55.872C606.799 58.368 609.743 60.32 613.135 61.728C616.527 63.072 620.271 63.744 624.367 63.744Z" fill="white"/>
</svg>
